<?xml version="1.0" encoding="UTF-8"?>
<!DOCTYPE svg PUBLIC "-//W3C//DTD SVG 1.1//EN" "http://www.w3.org/Graphics/SVG/1.1/DTD/svg11.dtd">
<svg version="1.1" xmlns="http://www.w3.org/2000/svg" xmlns:xlink="http://www.w3.org/1999/xlink" x="0" y="0" width="25" height="25" viewBox="0, 0, 25, 25">
  <g id="Calque_1">
    <path d="M12.147,3.625 L23.25,22.75 L0.25,22.62 L12.147,3.625 z" fill="#1A1705" fill-opacity="0.442"/>
    <g>
      <path d="M12.875,2.5 L23.375,20.875 L1.625,20.75 L12.875,2.5 z" fill="#FFD600"/>
      <path d="M12.875,2.5 L23.375,20.875 L1.625,20.75 L12.875,2.5 z" fill-opacity="0" stroke="#FFA300" stroke-width="1"/>
    </g>
    <path d="M12.875,2.5 L23.375,20.875 L1.625,20.75 L12.875,2.5 z" fill-opacity="0" stroke="#FF9300" stroke-width="1" display="none"/>
    <g>
      <path d="M11.062,9.469 L14.188,9.469 L13.562,15.75 L11.625,15.75 L11.062,9.469 z" fill="#FFA300"/>
      <path d="M11.062,9.469 L14.188,9.469 L13.562,15.75 L11.625,15.75 L11.062,9.469 z" fill-opacity="0" stroke="#E66417" stroke-width="0.5"/>
    </g>
    <g>
      <path d="M11.438,17.125 L13.812,17.125 L13.812,18.688 L11.438,18.688 L11.438,17.125 z" fill="#FFA300"/>
      <path d="M11.438,17.125 L13.812,17.125 L13.812,18.688 L11.438,18.688 L11.438,17.125 z" fill-opacity="0" stroke="#E66417" stroke-width="0.5"/>
    </g>
  </g>
</svg>
